# xmcd
#
# Track frame offsets:
#	150
#	15254
#	28714
#	46054
#	57680
#	71044
#	86456
#	99416
#	109533
#	124291
#	138544
#	153958
#	168897
#	180117
#	198856
#
# Disc length: 2825 seconds
#
# Revision: 1
# Processed by: cddbd v1.5.2PL0 Copyright (c) Steve Scherf et al.
# Submitted via: audiograbber 1.83.01
#
DISCID=b70b070f
DTITLE=Various Artist - Etsi einai i agapi - CD 4
DYEAR=2012
DGENRE=Slow
TTITLE0=Grigoris Mpithikotsis - Episimi agapimeni
TTITLE1=Vicky Moscholiou - Den kserw poso s'agapw
TTITLE2=Litsa Diamanti - Enas erwtas megalos
TTITLE3=Tolis Voskopoulos - Egw agapw mia
TTITLE4=Stamatis Kokotas - Rwmios agapise rwmia
TTITLE5=Manolis Mitsias - Epeidi s'agapw
TTITLE6=Litsa Diamanti - Ase me na s'agapaw
TTITLE7=Marinella - Etsi einai i agapi
TTITLE8=Vicky Moscholiou - Ton agapw - ton agapw
TTITLE9=Themis Adamantidis - Poname osoi agapame
TTITLE10=Stratos Dionysiou - Me les agapi
TTITLE11=Tolis Voskopoulos - Prin xathei to oneiro mas
TTITLE12=Katerina Kouka - Na 'xa dyo kardies na s'agapw
TTITLE13=Stratos Dionysiou - Kratise me
TTITLE14=Poly Panou - Pare to daxtylidi mou
EXTD=
EXTT0=
EXTT1=
EXTT2=
EXTT3=
EXTT4=
EXTT5=
EXTT6=
EXTT7=
EXTT8=
EXTT9=
EXTT10=
EXTT11=
EXTT12=
EXTT13=
EXTT14=
PLAYORDER=
